<!-- Generated by IcoMoon.io -->
<svg version="1.1" xmlns="http://www.w3.org/2000/svg" width="576" height="576" viewBox="0 0 576 576">
<title></title>
<g id="icomoon-ignore">
</g>
<path fill="#000" d="M288 32c-141.391 0-256 114.609-256 256s114.609 256 256 256 256-114.609 256-256-114.609-256-256-256zM288 480c-105.875 0-192-86.125-192-192s86.125-192 192-192 192 86.125 192 192-86.125 192-192 192z"></path>
<path fill="#000" d="M375.094 201.344l-0.438-0.438c-11.875-11.875-31.125-11.875-43 0l-43.656 43.656-43.656-43.656c-11.875-11.875-31.125-11.875-43 0l-0.438 0.438c-11.875 11.875-11.875 31.125 0 43l43.656 43.656-43.656 43.656c-11.875 11.875-11.875 31.125 0 43l0.438 0.438c11.875 11.875 31.125 11.875 43 0l43.656-43.656 43.656 43.656c11.875 11.875 31.125 11.875 43 0l0.438-0.438c11.875-11.875 11.875-31.125 0-43l-43.656-43.656 43.656-43.656c11.875-11.875 11.875-31.125 0-43z"></path>
</svg>
