<!-- Generated by IcoMoon.io -->
<svg version="1.1" xmlns="http://www.w3.org/2000/svg" width="768" height="768" viewBox="0 0 768 768">
<title></title>
<g id="icomoon-ignore">
</g>
<path d="M320 226.592v314.848l-108-86.4c-5.44-4.384-12.416-7.040-20-7.040h-96v-128h96c6.976 0.032 14.048-2.272 20-7.008zM332 135.008l-151.232 120.992h-116.768c-17.664 0-32 14.336-32 32v192c0 17.664 14.336 32 32 32h116.768l151.232 120.992c13.792 11.040 33.952 8.8 44.992-4.992 4.736-5.92 7.040-13.024 7.008-20v-448c0-17.664-14.336-32-32-32-7.584 0-14.56 2.656-20 7.008zM587.616 180.384c56.224 56.256 84.32 129.888 84.32 203.648 0 73.728-28.096 147.36-84.32 203.584-12.48 12.512-12.48 32.768 0 45.248s32.768 12.48 45.248 0c68.704-68.704 103.040-158.816 103.072-248.832 0-90.016-34.368-180.16-103.072-248.896-12.48-12.512-32.768-12.512-45.248 0s-12.512 32.768 0 45.248zM474.656 293.344c24.992 24.992 37.472 57.696 37.472 90.496s-12.48 65.504-37.472 90.496c-12.48 12.512-12.48 32.768 0 45.248s32.768 12.48 45.248 0c37.472-37.472 56.224-86.656 56.224-135.744s-18.752-98.272-56.224-135.744c-12.48-12.512-32.768-12.512-45.248 0s-12.512 32.768 0 45.248z"></path>
</svg>
